<?xml version="1.0" standalone="no"?><!DOCTYPE svg PUBLIC "-//W3C//DTD SVG 1.1//EN" "http://www.w3.org/Graphics/SVG/1.1/DTD/svg11.dtd"><svg t="1627294506559" class="icon" viewBox="0 0 1024 1024" version="1.1" xmlns="http://www.w3.org/2000/svg" p-id="3169" width="16" height="16" xmlns:xlink="http://www.w3.org/1999/xlink"><defs><style type="text/css">@font-face { font-family: feedback-iconfont; src: url("//at.alicdn.com/t/font_1031158_1uhr8ri0pk5.eot?#iefix") format("embedded-opentype"), url("//at.alicdn.com/t/font_1031158_1uhr8ri0pk5.woff2") format("woff2"), url("//at.alicdn.com/t/font_1031158_1uhr8ri0pk5.woff") format("woff"), url("//at.alicdn.com/t/font_1031158_1uhr8ri0pk5.ttf") format("truetype"), url("//at.alicdn.com/t/font_1031158_1uhr8ri0pk5.svg#iconfont") format("svg"); }
</style></defs><path d="M554.581 679.68l0.086 2.987v42.666H640a42.667 42.667 0 0 1 0 85.334h-85.333V896a42.667 42.667 0 0 1-85.334 0v-85.333H384a42.667 42.667 0 0 1 0-85.334h85.333v-42.666c0-1.024 0-2.006 0.086-2.987A298.752 298.752 0 0 1 512 85.333a298.667 298.667 0 0 1 42.581 594.347zM512 597.333a213.333 213.333 0 1 0 0-426.666 213.333 213.333 0 0 0 0 426.666z" p-id="3170" fill="#e83e8c"></path></svg>