<svg width="888.9999999999999" height="617" xmlns="http://www.w3.org/2000/svg" xmlns:xlink="http://www.w3.org/1999/xlink" xml:space="preserve" version="1.1">
 <g>
  <title>Layer 1</title>
  <g id="svg_1">
   <g id="svg_2">
    <defs transform="translate(0 1.36987) translate(0 1.36987) translate(0 1.36987) translate(0 1.36987) translate(0 1.36987) translate(0 1.36987) translate(0 1.36987) translate(0 1.36987) translate(0 1.36987) translate(0 1.36987) translate(0 1.36987) translate(0 1.36987) translate(0 1.36987) translate(0 1.36987) translate(0 1.36987) translate(0 1.36987) translate(0 1.36987) translate(0 1.36987) translate(0 1.36987) translate(0 1.36987) translate(0 1.36987) translate(0 1.36987) translate(0 1.36987) translate(0 1.36987) translate(0 1.36987) translate(0 1.36987) translate(0 1.36987) translate(0 1.36987) translate(0 1.36987) translate(0 1.36987) translate(0 1.36987) translate(0 1.36987) translate(0 -1.36987) translate(0 -1.36987) translate(0 -1.36987) translate(0 -1.36987) translate(0 -1.36987) translate(0 -1.36987) translate(0 -1.36987) translate(0 -1.36987) translate(0 -1.36987) translate(0 -1.36987) translate(0 -1.36987) translate(0 -1.36987) translate(0 -1.36987) translate(0 -1.36987) translate(0 -1.36987) translate(0 -1.36987) translate(0 -1.36987) translate(0 -1.36987) translate(0 -1.36987) translate(0 -1.36987) translate(0 -1.36987) translate(0 -1.36987) translate(0 -1.36987) translate(0 -1.36987) translate(0 -1.36987) translate(0 -1.36987) translate(0 -1.36987) translate(0 -1.36987) translate(0 -1.36987) translate(0 -1.36987) translate(0 -1.36987) translate(0 35.63) translate(-0.80688 0) translate(0 23.2743) translate(1.36987 -58.9043) translate(0 -2.11643) translate(-2.06302 0) translate(2.16461 0) translate(-2.73974 -108.22) translate(-53.4249 0)">
     <path d="m211.742,242.011c0,0 -213.726,89.081 -7.958,339.362c0,0 63.078,84.372 324.844,138.905c0,0 317.472,-3.568 340.209,-300.223c22.737,-296.655 -204.631,-260.655 -260.698,-221.623c-48.587,33.825 -178.815,80.298 -288.175,29.917c0.001,0 -33.24,-21.581 -108.222,13.662z" id="XMLID_127_"/>
    </defs>
    <use x="-55.50001" y="-108.96613" id="svg_3" fill="#FFEBE5" xlink:href="#XMLID_127_"/>
    <clipPath transform="translate(0 1.36987) translate(0 1.36987) translate(0 1.36987) translate(0 1.36987) translate(0 1.36987) translate(0 1.36987) translate(0 1.36987) translate(0 1.36987) translate(0 1.36987) translate(0 1.36987) translate(0 1.36987) translate(0 1.36987) translate(0 1.36987) translate(0 1.36987) translate(0 1.36987) translate(0 1.36987) translate(0 1.36987) translate(0 1.36987) translate(0 1.36987) translate(0 1.36987) translate(0 1.36987) translate(0 1.36987) translate(0 1.36987) translate(0 1.36987) translate(0 1.36987) translate(0 1.36987) translate(0 1.36987) translate(0 1.36987) translate(0 1.36987) translate(0 1.36987) translate(0 1.36987) translate(0 1.36987) translate(0 -1.36987) translate(0 -1.36987) translate(0 -1.36987) translate(0 -1.36987) translate(0 -1.36987) translate(0 -1.36987) translate(0 -1.36987) translate(0 -1.36987) translate(0 -1.36987) translate(0 -1.36987) translate(0 -1.36987) translate(0 -1.36987) translate(0 -1.36987) translate(0 -1.36987) translate(0 -1.36987) translate(0 -1.36987) translate(0 -1.36987) translate(0 -1.36987) translate(0 -1.36987) translate(0 -1.36987) translate(0 -1.36987) translate(0 -1.36987) translate(0 -1.36987) translate(0 -1.36987) translate(0 -1.36987) translate(0 -1.36987) translate(0 -1.36987) translate(0 -1.36987) translate(0 -1.36987) translate(0 -1.36987) translate(0 -1.36987) translate(0 35.63) translate(-0.80688 0) translate(0 23.2743) translate(1.36987 -58.9043) translate(0 -2.11643) translate(-2.06302 0) translate(2.16461 0) translate(-2.73974 -108.22) translate(-53.4249 0)" id="XMLID_2_">
     <use x="-55.50001" y="-108.96613" id="svg_4" xlink:href="#XMLID_127_"/>
    </clipPath>
    <path id="svg_5" fill="#FFFFFF" clip-path="url(#XMLID_2_)" d="m17.60599,436.54087c-0.019,0 -0.035,-0.001 -0.049,-0.002l0.049,-0.998l-0.991,-0.127l0.015,-0.149c1.026,-10.346 11.838,-102.47 74.477,-150.539c32.811,-25.18 74.243,-33.874 123.149,-25.84c98.867,16.237 166.661,-41.459 198.271,-77.299c49.729,-56.385 70.705,-123.272 63.851,-146.405l1.918,-0.568c3.804,12.84 -0.336,36.368 -11.075,62.938c-12.05,29.813 -30.94,60.128 -53.193,85.357c-25.146,28.511 -53.562,49.911 -84.456,63.604c-36.417,16.143 -75.323,20.968 -115.64,14.345c-48.334,-7.938 -89.251,0.624 -121.607,25.454c-61.972,47.557 -72.688,138.892 -73.705,149.151c-0.097,0.975 -0.748,1.078 -1.014,1.078z"/>
    <path id="svg_6" fill="#FFFFFF" clip-path="url(#XMLID_2_)" d="m128.94899,561.48887l-1.982,-0.27c0.088,-0.644 9.245,-65.048 49.973,-128.702c23.935,-37.407 53.928,-67.253 89.146,-88.709c44.017,-26.816 96.348,-40.517 155.54,-40.722c70.74,-0.244 118.916,-20.15 143.191,-59.165c24.696,-39.693 19.849,-92.391 11.434,-129.608c-9.143,-40.431 -24.356,-71.844 -24.509,-72.156l1.797,-0.877c0.153,0.314 15.456,31.901 24.652,72.549c8.507,37.595 13.386,90.864 -11.674,131.145c-24.661,39.642 -73.408,59.866 -144.884,60.113c-133.15,0.461 -205.621,70.104 -242.97,128.447c-40.514,63.287 -49.627,127.316 -49.714,127.955z"/>
    <path id="svg_7" fill="#FFFFFF" clip-path="url(#XMLID_2_)" d="m850.78399,345.14787c-62.394,-31.321 -111.718,-66.314 -146.601,-104.006c-29.008,-31.342 -48.344,-64.846 -57.473,-99.58c-10.899,-41.471 -5.123,-77.363 1.643,-100.172c7.333,-24.724 17.4,-39.869 17.501,-40.02l1.66,1.115c-0.1,0.148 -10.027,15.099 -17.27,39.561c-6.679,22.554 -12.375,58.046 -1.59,99.047c20.181,76.717 88.488,144.769 203.025,202.268l-0.895,1.787z"/>
    <path id="svg_8" fill="#FFFFFF" clip-path="url(#XMLID_2_)" d="m247.22999,689.62987c-12.04,0 -19.207,-1.168 -19.395,-1.2l0.338,-1.971c0.494,0.084 50.211,8.151 109.427,-19.158c54.67,-25.212 128.866,-86.609 171.871,-235.922c21.027,-73.008 56.179,-116.218 104.477,-128.429c25.554,-6.459 54.925,-4.221 87.297,6.654c25.832,8.679 53.632,22.849 82.627,42.117c49.329,32.781 85.525,69.484 85.885,69.852l-1.428,1.4c-0.358,-0.365 -36.433,-36.941 -85.595,-69.606c-45.272,-30.08 -111.217,-62.908 -168.299,-48.477c-47.558,12.024 -82.226,54.768 -103.042,127.041c-19.082,66.253 -45.842,120.966 -79.537,162.619c-26.986,33.359 -58.454,58.464 -93.53,74.618c-37.364,17.208 -71.009,20.462 -91.096,20.462z"/>
    <path id="svg_9" fill="#FFFFFF" clip-path="url(#XMLID_2_)" d="m336.68299,664.13787l-1.648,-1.135c0.313,-0.455 31.553,-46.153 50.486,-99.97c17.397,-49.449 27.667,-116.082 -22.207,-152.699c-18.035,-13.239 -37.088,-17.146 -56.631,-11.604c-37.201,10.547 -70.294,53.69 -91.505,88.025c-23.038,37.294 -37.403,72.521 -37.546,72.872l-1.854,-0.752c0.143,-0.353 14.572,-35.735 37.698,-73.171c21.396,-34.638 54.841,-78.177 92.66,-88.898c20.164,-5.719 39.801,-1.709 58.36,11.917c22.491,16.513 34.996,40.277 37.165,70.634c1.729,24.179 -3.072,52.566 -14.267,84.374c-19.023,54.062 -50.396,99.949 -50.711,100.407z"/>
   </g>
   <path id="svg_10" fill="#26205C" d="m881.61599,618.13187l-874.232,0c-3.752,0 -6.821,-3.07 -6.821,-6.821l0,0c0,-3.752 3.069,-6.821 6.821,-6.821l874.232,0c3.752,0 6.821,3.07 6.821,6.821l0,0c0,3.752 -3.07,6.821 -6.821,6.821z"/>
   <path id="svg_11" fill="#FFFFFF" d="m620.27199,292.13787l-194.977,0l-43.75,55.753l0,-202.225c0,-5.751 4.662,-10.412 10.412,-10.412l228.315,0c5.751,0 10.412,4.662 10.412,10.412l0,136.059c0.001,5.751 -4.661,10.413 -10.412,10.413z"/>
   <circle id="svg_12" fill="#FF6666" r="35.704" cy="192.78987" cx="328.20199"/>
   <rect id="svg_13" fill="#5A78EC" height="28.918" width="117.567" y="178.90487" x="105.96899"/>
   <rect id="svg_14" fill="#EAEAFF" height="28.918" width="85.828" y="227.11287" x="158.91999"/>
   <g id="svg_15">
    <defs transform="translate(0 1.36987) translate(0 1.36987) translate(0 1.36987) translate(0 1.36987) translate(0 1.36987) translate(0 1.36987) translate(0 1.36987) translate(0 1.36987) translate(0 1.36987) translate(0 1.36987) translate(0 1.36987) translate(0 1.36987) translate(0 1.36987) translate(0 1.36987) translate(0 1.36987) translate(0 1.36987) translate(0 1.36987) translate(0 1.36987) translate(0 1.36987) translate(0 1.36987) translate(0 1.36987) translate(0 1.36987) translate(0 1.36987) translate(0 1.36987) translate(0 1.36987) translate(0 1.36987) translate(0 1.36987) translate(0 1.36987) translate(0 1.36987) translate(0 1.36987) translate(0 1.36987) translate(0 1.36987) translate(0 -1.36987) translate(0 -1.36987) translate(0 -1.36987) translate(0 -1.36987) translate(0 -1.36987) translate(0 -1.36987) translate(0 -1.36987) translate(0 -1.36987) translate(0 -1.36987) translate(0 -1.36987) translate(0 -1.36987) translate(0 -1.36987) translate(0 -1.36987) translate(0 -1.36987) translate(0 -1.36987) translate(0 -1.36987) translate(0 -1.36987) translate(0 -1.36987) translate(0 -1.36987) translate(0 -1.36987) translate(0 -1.36987) translate(0 -1.36987) translate(0 -1.36987) translate(0 -1.36987) translate(0 -1.36987) translate(0 -1.36987) translate(0 -1.36987) translate(0 -1.36987) translate(0 -1.36987) translate(0 -1.36987) translate(0 -1.36987) translate(0 35.63) translate(-0.80688 0) translate(0 23.2743) translate(1.36987 -58.9043) translate(0 -2.11643) translate(-2.06302 0) translate(2.16461 0) translate(-2.73974 -108.22) translate(-53.4249 0)">
     <path d="m451.383,598.221l-301.642,0c-3.848,0 -6.967,-3.119 -6.967,-6.967l0,-43.665c0,-3.848 3.119,-6.967 6.967,-6.967l301.642,0c3.848,0 6.967,3.119 6.967,6.967l0,43.665c0.001,3.848 -3.119,6.967 -6.967,6.967z" id="XMLID_116_"/>
    </defs>
    <use x="-55.50001" y="-108.96613" id="svg_16" fill="#FFFFFF" xlink:href="#XMLID_116_"/>
    <clipPath transform="translate(0 1.36987) translate(0 1.36987) translate(0 1.36987) translate(0 1.36987) translate(0 1.36987) translate(0 1.36987) translate(0 1.36987) translate(0 1.36987) translate(0 1.36987) translate(0 1.36987) translate(0 1.36987) translate(0 1.36987) translate(0 1.36987) translate(0 1.36987) translate(0 1.36987) translate(0 1.36987) translate(0 1.36987) translate(0 1.36987) translate(0 1.36987) translate(0 1.36987) translate(0 1.36987) translate(0 1.36987) translate(0 1.36987) translate(0 1.36987) translate(0 1.36987) translate(0 1.36987) translate(0 1.36987) translate(0 1.36987) translate(0 1.36987) translate(0 1.36987) translate(0 1.36987) translate(0 1.36987) translate(0 -1.36987) translate(0 -1.36987) translate(0 -1.36987) translate(0 -1.36987) translate(0 -1.36987) translate(0 -1.36987) translate(0 -1.36987) translate(0 -1.36987) translate(0 -1.36987) translate(0 -1.36987) translate(0 -1.36987) translate(0 -1.36987) translate(0 -1.36987) translate(0 -1.36987) translate(0 -1.36987) translate(0 -1.36987) translate(0 -1.36987) translate(0 -1.36987) translate(0 -1.36987) translate(0 -1.36987) translate(0 -1.36987) translate(0 -1.36987) translate(0 -1.36987) translate(0 -1.36987) translate(0 -1.36987) translate(0 -1.36987) translate(0 -1.36987) translate(0 -1.36987) translate(0 -1.36987) translate(0 -1.36987) translate(0 -1.36987) translate(0 35.63) translate(-0.80688 0) translate(0 23.2743) translate(1.36987 -58.9043) translate(0 -2.11643) translate(-2.06302 0) translate(2.16461 0) translate(-2.73974 -108.22) translate(-53.4249 0)" id="XMLID_3_">
     <use x="-55.50001" y="-108.96613" id="svg_17" xlink:href="#XMLID_116_"/>
    </clipPath>
    <rect id="svg_18" fill="#FF6666" clip-path="url(#XMLID_3_)" height="101.306" width="84.505" y="409.16987" x="340.78999"/>
   </g>
   <path id="svg_19" stroke-miterlimit="10" stroke-linejoin="round" stroke-linecap="round" stroke-width="2" stroke="#232323" fill="none" d="m403.47399,479.87287l-301.642,0c-3.848,0 -6.967,-3.119 -6.967,-6.967l0,-43.665c0,-3.848 3.119,-6.967 6.967,-6.967l301.642,0c3.848,0 6.967,3.119 6.967,6.967l0,43.665c0,3.848 -3.119,6.967 -6.967,6.967z"/>
   <path id="svg_20" fill="#FFFFFF" d="m367.97199,471.25187c-8.703,0 -15.783,-7.08 -15.783,-15.783s7.08,-15.783 15.783,-15.783s15.783,7.08 15.783,15.783s-7.079,15.783 -15.783,15.783zm0,-29.567c-7.6,0 -13.783,6.184 -13.783,13.783s6.184,13.783 13.783,13.783s13.783,-6.184 13.783,-13.783s-6.183,-13.783 -13.783,-13.783z"/>
   <path id="svg_21" fill="#FFFFFF" d="m394.07199,479.90187c-0.228,0 -0.457,-0.077 -0.645,-0.236l-15.515,-13.119c-0.422,-0.356 -0.475,-0.987 -0.118,-1.409c0.357,-0.423 0.987,-0.477 1.409,-0.118l15.515,13.119c0.422,0.356 0.475,0.987 0.118,1.409c-0.198,0.234 -0.48,0.354 -0.764,0.354z"/>
   <rect id="svg_22" fill="#F1F1F1" height="18.947" width="197.709" y="150.85987" x="405.06199"/>
   <rect id="svg_23" fill="#F1F1F1" height="18.947" width="197.709" y="177.24187" x="405.06199"/>
   <rect id="svg_24" fill="#F1F1F1" height="18.947" width="115.854" y="202.87387" x="405.06199"/>
   <rect id="svg_25" fill="#FFD840" height="34.734" width="34.734" y="237.60387" x="402.85099"/>
   <rect id="svg_26" fill="#FF6666" height="34.734" width="34.734" y="237.60387" x="459.96999"/>
   <path id="svg_27" fill="#FFD840" d="m392.34199,330.72387c-10.638,0.001 -18.559,-2.92 -23.242,-8.76c-7.828,-9.762 -5.818,-26.416 5.813,-48.162c0.262,-0.487 0.866,-0.67 1.354,-0.41c0.487,0.261 0.671,0.866 0.41,1.354c-11.064,20.685 -13.201,37.009 -6.017,45.967c18.229,22.733 89.493,-4.035 158.852,-59.665c33.726,-27.051 61.93,-56.828 79.414,-83.848c17.289,-26.717 22.015,-47.409 13.307,-58.266c-10.813,-13.483 -41.376,-9.809 -81.753,9.824c-0.495,0.242 -1.096,0.034 -1.337,-0.462c-0.241,-0.497 -0.034,-1.096 0.462,-1.337c41.276,-20.069 72.75,-23.539 84.188,-9.277c9.29,11.583 4.606,33.105 -13.188,60.604c-17.599,27.195 -45.954,57.141 -79.842,84.322c-33.89,27.181 -69.276,48.36 -99.642,59.637c-15.225,5.654 -28.317,8.479 -38.779,8.479z"/>
   <circle id="svg_28" fill="#5A78EC" r="7.319" cy="228.92987" cx="568.03199"/>
   <g id="svg_29">
    <g id="svg_30">
     <defs transform="translate(0 1.36987) translate(0 1.36987) translate(0 1.36987) translate(0 1.36987) translate(0 1.36987) translate(0 1.36987) translate(0 1.36987) translate(0 1.36987) translate(0 1.36987) translate(0 1.36987) translate(0 1.36987) translate(0 1.36987) translate(0 1.36987) translate(0 1.36987) translate(0 1.36987) translate(0 1.36987) translate(0 1.36987) translate(0 1.36987) translate(0 1.36987) translate(0 1.36987) translate(0 1.36987) translate(0 1.36987) translate(0 1.36987) translate(0 1.36987) translate(0 1.36987) translate(0 1.36987) translate(0 1.36987) translate(0 1.36987) translate(0 1.36987) translate(0 1.36987) translate(0 1.36987) translate(0 1.36987) translate(0 -1.36987) translate(0 -1.36987) translate(0 -1.36987) translate(0 -1.36987) translate(0 -1.36987) translate(0 -1.36987) translate(0 -1.36987) translate(0 -1.36987) translate(0 -1.36987) translate(0 -1.36987) translate(0 -1.36987) translate(0 -1.36987) translate(0 -1.36987) translate(0 -1.36987) translate(0 -1.36987) translate(0 -1.36987) translate(0 -1.36987) translate(0 -1.36987) translate(0 -1.36987) translate(0 -1.36987) translate(0 -1.36987) translate(0 -1.36987) translate(0 -1.36987) translate(0 -1.36987) translate(0 -1.36987) translate(0 -1.36987) translate(0 -1.36987) translate(0 -1.36987) translate(0 -1.36987) translate(0 -1.36987) translate(0 -1.36987) translate(0 35.63) translate(-0.80688 0) translate(0 23.2743) translate(1.36987 -58.9043) translate(0 -2.11643) translate(-2.06302 0) translate(2.16461 0) translate(-2.73974 -108.22) translate(-53.4249 0)">
      <path d="m309.338,680.774l0,8.479c0,0 22.932,1.068 41.581,25.933l-83.163,0l3.041,-34.19l38.541,-0.222z" id="SVGID_73_"/>
     </defs>
     <use x="-55.50001" y="-108.96613" id="svg_31" fill="#26205C" xlink:href="#SVGID_73_"/>
     <clipPath transform="translate(0 1.36987) translate(0 1.36987) translate(0 1.36987) translate(0 1.36987) translate(0 1.36987) translate(0 1.36987) translate(0 1.36987) translate(0 1.36987) translate(0 1.36987) translate(0 1.36987) translate(0 1.36987) translate(0 1.36987) translate(0 1.36987) translate(0 1.36987) translate(0 1.36987) translate(0 1.36987) translate(0 1.36987) translate(0 1.36987) translate(0 1.36987) translate(0 1.36987) translate(0 1.36987) translate(0 1.36987) translate(0 1.36987) translate(0 1.36987) translate(0 1.36987) translate(0 1.36987) translate(0 1.36987) translate(0 1.36987) translate(0 1.36987) translate(0 1.36987) translate(0 1.36987) translate(0 1.36987) translate(0 -1.36987) translate(0 -1.36987) translate(0 -1.36987) translate(0 -1.36987) translate(0 -1.36987) translate(0 -1.36987) translate(0 -1.36987) translate(0 -1.36987) translate(0 -1.36987) translate(0 -1.36987) translate(0 -1.36987) translate(0 -1.36987) translate(0 -1.36987) translate(0 -1.36987) translate(0 -1.36987) translate(0 -1.36987) translate(0 -1.36987) translate(0 -1.36987) translate(0 -1.36987) translate(0 -1.36987) translate(0 -1.36987) translate(0 -1.36987) translate(0 -1.36987) translate(0 -1.36987) translate(0 -1.36987) translate(0 -1.36987) translate(0 -1.36987) translate(0 -1.36987) translate(0 -1.36987) translate(0 -1.36987) translate(0 -1.36987) translate(0 35.63) translate(-0.80688 0) translate(0 23.2743) translate(1.36987 -58.9043) translate(0 -2.11643) translate(-2.06302 0) translate(2.16461 0) translate(-2.73974 -108.22) translate(-53.4249 0)" id="SVGID_1_">
      <use x="-55.50001" y="-108.96613" id="svg_32" xlink:href="#SVGID_73_"/>
     </clipPath>
     <rect id="svg_33" fill="#FFFFFF" clip-path="url(#SVGID_1_)" height="2.072" width="145.393" transform="matrix(-1 -4.49011e-11 4.49011e-11 -1 612.393 1424.15)" y="820.00713" x="289.00001"/>
    </g>
    <g id="svg_34">
     <path id="svg_35" fill="#FFB7B7" d="m283.86899,216.01687l-2.959,-2.319c0.194,-1.067 0.311,-2.161 0.311,-3.284c0,-10.072 -8.165,-18.236 -18.236,-18.236c-10.072,0 -18.236,8.165 -18.236,18.236c0,10.072 8.165,18.236 18.236,18.236c7.401,0 13.758,-4.417 16.617,-10.751c6.301,0.711 4.267,-1.882 4.267,-1.882z"/>
     <path id="svg_36" fill="#26205C" d="m244.66499,212.72287l6.93,-2.454c0,0 -4.346,-16.759 12.147,-7.315c0,0 -0.068,-6.176 5.652,-4.32s7.056,5.456 10.465,3.606c0,0 10.376,-11.456 -0.879,-16.875c-11.255,-5.419 -17.685,-9.82 -26.826,-2.918c-9.141,6.901 -15.244,15.367 -7.489,30.276z"/>
    </g>
    <path id="svg_37" fill="#5A78EC" d="m228.36199,245.28187l65.905,-7.575c7.619,-0.876 14.754,3.884 16.871,11.255l10.042,101.162l-89.417,0l-16.618,-85.568c-2.365,-9.107 3.871,-18.199 13.217,-19.274z"/>
    <path id="svg_38" fill="#5A78EC" d="m216.53299,336.35187l0,0c-7.84,-1.242 -13.19,-8.604 -11.948,-16.445l9.508,-60.036c1.242,-7.84 8.604,-13.19 16.445,-11.948l0,0c7.84,1.242 13.19,8.604 11.948,16.445l-9.508,60.036c-1.242,7.841 -8.604,13.19 -16.445,11.948z"/>
    <path id="svg_39" fill="#5A78EC" d="m337.36999,312.12487l0,0c-6.591,4.424 -15.52,2.668 -19.945,-3.923l-32.365,-48.213c-4.424,-6.591 -2.668,-15.52 3.923,-19.945l0,0c6.591,-4.424 15.52,-2.668 19.945,3.923l32.365,48.213c4.424,6.591 2.668,15.521 -3.923,19.945z"/>
    <g id="svg_40">
     <path id="svg_41" fill="#FFB7B7" d="m421.55999,290.64587l0,0c-0.615,-4.955 -5.173,-8.505 -10.128,-7.89l-8.581,1.066l-5.54,5.54c-1.014,1.014 -2.674,1.014 -3.688,0s-1.014,-2.674 0,-3.688l0.807,-0.807l-9.123,1.133c-4.955,0.615 -8.505,5.173 -7.89,10.128c0.615,4.955 5.173,8.505 10.127,7.89l26.125,-3.245c4.955,-0.615 8.506,-5.173 7.891,-10.127z"/>
     <path id="svg_42" fill="#FFB7B7" d="m404.30199,282.36987c1.014,-1.014 1.014,-2.674 0,-3.688c-1.014,-1.014 -2.674,-1.014 -3.688,0l-6.185,6.185l8.421,-1.046l1.452,-1.451z"/>
     <path id="svg_43" fill="#FFB7B7" d="m393.62299,289.36187c1.014,1.014 2.674,1.014 3.688,0l5.54,-5.54l-8.421,1.046l-0.807,0.807c-1.015,1.013 -1.015,2.673 0,3.687z"/>
    </g>
    <path id="svg_44" fill="#5A78EC" d="m392.49299,281.96587l2.3,24.143c0.118,1.234 -0.787,2.329 -2.021,2.447l-61.69,5.969c-7.902,0.753 -14.919,-5.043 -15.672,-12.945l0,0c-0.753,-7.902 5.043,-14.919 12.945,-15.672l61.685,-5.969c1.237,-0.117 2.336,0.79 2.453,2.027z"/>
    <g id="svg_45">
     <defs transform="translate(0 1.36987) translate(0 1.36987) translate(0 1.36987) translate(0 1.36987) translate(0 1.36987) translate(0 1.36987) translate(0 1.36987) translate(0 1.36987) translate(0 1.36987) translate(0 1.36987) translate(0 1.36987) translate(0 1.36987) translate(0 1.36987) translate(0 1.36987) translate(0 1.36987) translate(0 1.36987) translate(0 1.36987) translate(0 1.36987) translate(0 1.36987) translate(0 1.36987) translate(0 1.36987) translate(0 1.36987) translate(0 1.36987) translate(0 1.36987) translate(0 1.36987) translate(0 1.36987) translate(0 1.36987) translate(0 1.36987) translate(0 1.36987) translate(0 1.36987) translate(0 1.36987) translate(0 1.36987) translate(0 -1.36987) translate(0 -1.36987) translate(0 -1.36987) translate(0 -1.36987) translate(0 -1.36987) translate(0 -1.36987) translate(0 -1.36987) translate(0 -1.36987) translate(0 -1.36987) translate(0 -1.36987) translate(0 -1.36987) translate(0 -1.36987) translate(0 -1.36987) translate(0 -1.36987) translate(0 -1.36987) translate(0 -1.36987) translate(0 -1.36987) translate(0 -1.36987) translate(0 -1.36987) translate(0 -1.36987) translate(0 -1.36987) translate(0 -1.36987) translate(0 -1.36987) translate(0 -1.36987) translate(0 -1.36987) translate(0 -1.36987) translate(0 -1.36987) translate(0 -1.36987) translate(0 -1.36987) translate(0 -1.36987) translate(0 -1.36987) translate(0 35.63) translate(-0.80688 0) translate(0 23.2743) translate(1.36987 -58.9043) translate(0 -2.11643) translate(-2.06302 0) translate(2.16461 0) translate(-2.73974 -108.22) translate(-53.4249 0)">
      <polygon points="287.262,459.09 270.141,674.088 312.05,674.236 333.599,475.776 348.55,674.088       400.294,674.088 376.68,459.09     " id="SVGID_75_"/>
     </defs>
     <use x="-55.50001" y="-108.96613" id="svg_46" fill="#26205C" xlink:href="#SVGID_75_"/>
     <clipPath transform="translate(0 1.36987) translate(0 1.36987) translate(0 1.36987) translate(0 1.36987) translate(0 1.36987) translate(0 1.36987) translate(0 1.36987) translate(0 1.36987) translate(0 1.36987) translate(0 1.36987) translate(0 1.36987) translate(0 1.36987) translate(0 1.36987) translate(0 1.36987) translate(0 1.36987) translate(0 1.36987) translate(0 1.36987) translate(0 1.36987) translate(0 1.36987) translate(0 1.36987) translate(0 1.36987) translate(0 1.36987) translate(0 1.36987) translate(0 1.36987) translate(0 1.36987) translate(0 1.36987) translate(0 1.36987) translate(0 1.36987) translate(0 1.36987) translate(0 1.36987) translate(0 1.36987) translate(0 1.36987) translate(0 -1.36987) translate(0 -1.36987) translate(0 -1.36987) translate(0 -1.36987) translate(0 -1.36987) translate(0 -1.36987) translate(0 -1.36987) translate(0 -1.36987) translate(0 -1.36987) translate(0 -1.36987) translate(0 -1.36987) translate(0 -1.36987) translate(0 -1.36987) translate(0 -1.36987) translate(0 -1.36987) translate(0 -1.36987) translate(0 -1.36987) translate(0 -1.36987) translate(0 -1.36987) translate(0 -1.36987) translate(0 -1.36987) translate(0 -1.36987) translate(0 -1.36987) translate(0 -1.36987) translate(0 -1.36987) translate(0 -1.36987) translate(0 -1.36987) translate(0 -1.36987) translate(0 -1.36987) translate(0 -1.36987) translate(0 -1.36987) translate(0 35.63) translate(-0.80688 0) translate(0 23.2743) translate(1.36987 -58.9043) translate(0 -2.11643) translate(-2.06302 0) translate(2.16461 0) translate(-2.73974 -108.22) translate(-53.4249 0)" id="SVGID_2_">
      <use x="-55.50001" y="-108.96613" id="svg_47" xlink:href="#SVGID_75_"/>
     </clipPath>
     <polygon id="svg_48" fill="#13113D" clip-path="url(#SVGID_2_)" points="226.781005859375,373.7258554697037 231.2239990234375,381.6688791513443 260.5959777832031,364.1938730478287 252.65301513671875,352.61986792087555 332.31201171875,353.75487768650055 330.0419616699219,350.1238657236099 223.5360107421875,350.1238657236099 "/>
    </g>
    <path id="svg_49" fill="#5A78EC" d="m255.44699,365.23587l-20.97,12.107c-1.079,0.623 -2.46,0.253 -3.083,-0.826l-25.616,-44.368c-3.969,-6.875 -1.614,-15.665 5.261,-19.634l0,0c6.875,-3.969 15.665,-1.614 19.634,5.261l25.606,44.351c0.629,1.088 0.256,2.48 -0.832,3.109z"/>
    <polygon id="svg_50" fill="#FFB7B7" points="216.28500366210938,565.1218210458755 215.29800415039062,572.0297800302505 253.8380126953125,572.1768137216568 254.17298889160156,565.2698312997818 "/>
    <g id="svg_51">
     <defs transform="translate(0 1.36987) translate(0 1.36987) translate(0 1.36987) translate(0 1.36987) translate(0 1.36987) translate(0 1.36987) translate(0 1.36987) translate(0 1.36987) translate(0 1.36987) translate(0 1.36987) translate(0 1.36987) translate(0 1.36987) translate(0 1.36987) translate(0 1.36987) translate(0 1.36987) translate(0 1.36987) translate(0 1.36987) translate(0 1.36987) translate(0 1.36987) translate(0 1.36987) translate(0 1.36987) translate(0 1.36987) translate(0 1.36987) translate(0 1.36987) translate(0 1.36987) translate(0 1.36987) translate(0 1.36987) translate(0 1.36987) translate(0 1.36987) translate(0 1.36987) translate(0 1.36987) translate(0 1.36987) translate(0 -1.36987) translate(0 -1.36987) translate(0 -1.36987) translate(0 -1.36987) translate(0 -1.36987) translate(0 -1.36987) translate(0 -1.36987) translate(0 -1.36987) translate(0 -1.36987) translate(0 -1.36987) translate(0 -1.36987) translate(0 -1.36987) translate(0 -1.36987) translate(0 -1.36987) translate(0 -1.36987) translate(0 -1.36987) translate(0 -1.36987) translate(0 -1.36987) translate(0 -1.36987) translate(0 -1.36987) translate(0 -1.36987) translate(0 -1.36987) translate(0 -1.36987) translate(0 -1.36987) translate(0 -1.36987) translate(0 -1.36987) translate(0 -1.36987) translate(0 -1.36987) translate(0 -1.36987) translate(0 -1.36987) translate(0 -1.36987) translate(0 35.63) translate(-0.80688 0) translate(0 23.2743) translate(1.36987 -58.9043) translate(0 -2.11643) translate(-2.06302 0) translate(2.16461 0) translate(-2.73974 -108.22) translate(-53.4249 0)">
      <path d="m391.359,680.78l1.142,8.472c0,0 22.932,1.068 41.582,25.933l-83.163,0l0,-34.172l40.439,-0.233z" id="SVGID_77_"/>
     </defs>
     <use x="-55.50001" y="-108.96613" id="svg_52" fill="#26205C" xlink:href="#SVGID_77_"/>
     <clipPath transform="translate(0 1.36987) translate(0 1.36987) translate(0 1.36987) translate(0 1.36987) translate(0 1.36987) translate(0 1.36987) translate(0 1.36987) translate(0 1.36987) translate(0 1.36987) translate(0 1.36987) translate(0 1.36987) translate(0 1.36987) translate(0 1.36987) translate(0 1.36987) translate(0 1.36987) translate(0 1.36987) translate(0 1.36987) translate(0 1.36987) translate(0 1.36987) translate(0 1.36987) translate(0 1.36987) translate(0 1.36987) translate(0 1.36987) translate(0 1.36987) translate(0 1.36987) translate(0 1.36987) translate(0 1.36987) translate(0 1.36987) translate(0 1.36987) translate(0 1.36987) translate(0 1.36987) translate(0 1.36987) translate(0 -1.36987) translate(0 -1.36987) translate(0 -1.36987) translate(0 -1.36987) translate(0 -1.36987) translate(0 -1.36987) translate(0 -1.36987) translate(0 -1.36987) translate(0 -1.36987) translate(0 -1.36987) translate(0 -1.36987) translate(0 -1.36987) translate(0 -1.36987) translate(0 -1.36987) translate(0 -1.36987) translate(0 -1.36987) translate(0 -1.36987) translate(0 -1.36987) translate(0 -1.36987) translate(0 -1.36987) translate(0 -1.36987) translate(0 -1.36987) translate(0 -1.36987) translate(0 -1.36987) translate(0 -1.36987) translate(0 -1.36987) translate(0 -1.36987) translate(0 -1.36987) translate(0 -1.36987) translate(0 -1.36987) translate(0 -1.36987) translate(0 35.63) translate(-0.80688 0) translate(0 23.2743) translate(1.36987 -58.9043) translate(0 -2.11643) translate(-2.06302 0) translate(2.16461 0) translate(-2.73974 -108.22) translate(-53.4249 0)" id="SVGID_3_">
      <use x="-55.50001" y="-108.96613" id="svg_53" xlink:href="#SVGID_77_"/>
     </clipPath>
     <rect id="svg_54" fill="#FFFFFF" clip-path="url(#SVGID_3_)" height="2.072" width="145.393" transform="matrix(-1 -4.49011e-11 4.49011e-11 -1 778.719 1424.15)" y="820.00713" x="372.16301"/>
    </g>
    <polygon id="svg_55" fill="#FFB7B7" points="295.406982421875,565.1218210458755 295.41900634765625,572.0297800302505 335.8590087890625,571.813837647438 335.1769714355469,565.1218210458755 "/>
    <polygon id="svg_56" fill="#4C6AC8" points="238.35501098632812,272.0538583993912 231.2239990234375,318.72887670993805 249.35000610351562,350.1238657236099 252.65301513671875,350.1238657236099 234.18499755859375,316.7788645029068 "/>
    <polygon id="svg_57" fill="#4C6AC8" points="288.75799560546875,265.4978586435318 317.4249572753906,308.2018686532974 317.4249572753906,314.5918833017349 "/>
    <line id="svg_58" stroke-miterlimit="10" stroke-linejoin="round" stroke-linecap="round" stroke-width="2" stroke="#232323" fill="none" y2="303.43987" x2="314.22799" y1="259.98987" x1="285.05999"/>
    <polygon id="svg_59" fill="#FFB7B7" points="234.47698974609375,377.3418833017349 235.39700317382812,379.18688452243805 247.625,373.98986303806305 256.010986328125,367.2998605966568 257.4709777832031,365.1968637704849 256.4540100097656,364.0248667001724 "/>
    <path id="svg_60" stroke-miterlimit="10" stroke-linejoin="round" stroke-linecap="round" stroke-width="2" stroke="#FFFFFF" fill="none" d="m258.76799,361.52987c0,0 -0.105,11.176 -26.998,18.751l-14.067,178.971"/>
    <path id="svg_61" stroke-miterlimit="10" stroke-linejoin="round" stroke-linecap="round" stroke-width="2" stroke="#FFFFFF" fill="none" d="m303.09099,360.33587c0,0 0.582,10.667 14.334,15.206l21.922,183.71"/>
    <polyline id="svg_62" stroke-miterlimit="10" stroke-linejoin="round" stroke-linecap="round" stroke-width="2" stroke="#232323" fill="none" points="238.23599243164062,268.42186987400055 230.67401123046875,317.7748667001724 248.06100463867188,347.89086401462555 "/>
   </g>
   <g id="svg_63">
    <defs transform="translate(0 1.36987) translate(0 1.36987) translate(0 1.36987) translate(0 1.36987) translate(0 1.36987) translate(0 1.36987) translate(0 1.36987) translate(0 1.36987) translate(0 1.36987) translate(0 1.36987) translate(0 1.36987) translate(0 1.36987) translate(0 1.36987) translate(0 1.36987) translate(0 1.36987) translate(0 1.36987) translate(0 1.36987) translate(0 1.36987) translate(0 1.36987) translate(0 1.36987) translate(0 1.36987) translate(0 1.36987) translate(0 1.36987) translate(0 1.36987) translate(0 1.36987) translate(0 1.36987) translate(0 1.36987) translate(0 1.36987) translate(0 1.36987) translate(0 1.36987) translate(0 1.36987) translate(0 1.36987) translate(0 -1.36987) translate(0 -1.36987) translate(0 -1.36987) translate(0 -1.36987) translate(0 -1.36987) translate(0 -1.36987) translate(0 -1.36987) translate(0 -1.36987) translate(0 -1.36987) translate(0 -1.36987) translate(0 -1.36987) translate(0 -1.36987) translate(0 -1.36987) translate(0 -1.36987) translate(0 -1.36987) translate(0 -1.36987) translate(0 -1.36987) translate(0 -1.36987) translate(0 -1.36987) translate(0 -1.36987) translate(0 -1.36987) translate(0 -1.36987) translate(0 -1.36987) translate(0 -1.36987) translate(0 -1.36987) translate(0 -1.36987) translate(0 -1.36987) translate(0 -1.36987) translate(0 -1.36987) translate(0 -1.36987) translate(0 -1.36987) translate(0 35.63) translate(-0.80688 0) translate(0 23.2743) translate(1.36987 -58.9043) translate(0 -2.11643) translate(-2.06302 0) translate(2.16461 0) translate(-2.73974 -108.22) translate(-53.4249 0)">
     <path d="m738.858,472.991c0,0 9.221,-36.454 40.547,-55.868c0,0 23.495,3.396 16.674,55.868c0,0 7.39,-46.812 46.042,-37.907c0,0 -14.4,15.537 -15.347,39.411c0,0 36.379,10.042 26.905,44.147c0,0 18.568,-16.295 34.105,-18.947c0,0 -15.916,31.074 -9.853,47.368c0,0 17.621,-12.884 39.789,-4.926c0,0 -25.389,25.389 -20.084,43.579c0,0 26.905,-11.368 43.958,-2.653c0,0 -18.947,12.884 -30.316,45.095c0,0 12.884,3.032 25.768,29.937c0,0 -9.016,6.108 -28.042,5.684c0,0 33.863,13.713 28.11,49.677l-214.929,0l16.673,-240.465z" id="XMLID_126_"/>
    </defs>
    <use x="-55.50001" y="-108.96613" id="svg_64" fill="#ADCD55" xlink:href="#XMLID_126_"/>
    <clipPath transform="translate(0 1.36987) translate(0 1.36987) translate(0 1.36987) translate(0 1.36987) translate(0 1.36987) translate(0 1.36987) translate(0 1.36987) translate(0 1.36987) translate(0 1.36987) translate(0 1.36987) translate(0 1.36987) translate(0 1.36987) translate(0 1.36987) translate(0 1.36987) translate(0 1.36987) translate(0 1.36987) translate(0 1.36987) translate(0 1.36987) translate(0 1.36987) translate(0 1.36987) translate(0 1.36987) translate(0 1.36987) translate(0 1.36987) translate(0 1.36987) translate(0 1.36987) translate(0 1.36987) translate(0 1.36987) translate(0 1.36987) translate(0 1.36987) translate(0 1.36987) translate(0 1.36987) translate(0 1.36987) translate(0 -1.36987) translate(0 -1.36987) translate(0 -1.36987) translate(0 -1.36987) translate(0 -1.36987) translate(0 -1.36987) translate(0 -1.36987) translate(0 -1.36987) translate(0 -1.36987) translate(0 -1.36987) translate(0 -1.36987) translate(0 -1.36987) translate(0 -1.36987) translate(0 -1.36987) translate(0 -1.36987) translate(0 -1.36987) translate(0 -1.36987) translate(0 -1.36987) translate(0 -1.36987) translate(0 -1.36987) translate(0 -1.36987) translate(0 -1.36987) translate(0 -1.36987) translate(0 -1.36987) translate(0 -1.36987) translate(0 -1.36987) translate(0 -1.36987) translate(0 -1.36987) translate(0 -1.36987) translate(0 -1.36987) translate(0 -1.36987) translate(0 35.63) translate(-0.80688 0) translate(0 23.2743) translate(1.36987 -58.9043) translate(0 -2.11643) translate(-2.06302 0) translate(2.16461 0) translate(-2.73974 -108.22) translate(-53.4249 0)" id="XMLID_4_">
     <use x="-55.50001" y="-108.96613" id="svg_65" xlink:href="#XMLID_126_"/>
    </clipPath>
    <path id="svg_66" fill="#6F8037" clip-path="url(#XMLID_4_)" opacity="0.64" d="m653.16899,347.89087l91.301,0c1.177,0 2.502,0.136 3.858,0.406c5.759,1.149 9.916,6.204 10.254,12.067c0.214,3.715 0.439,8.335 0.439,11.367l0,141.776l0,3.789l42.189,0c0,0 48.884,20.084 57.979,91.326l-186.441,0l-19.579,-260.731z"/>
   </g>
   <g id="svg_67">
    <g id="svg_68">
     <defs transform="translate(0 1.36987) translate(0 1.36987) translate(0 1.36987) translate(0 1.36987) translate(0 1.36987) translate(0 1.36987) translate(0 1.36987) translate(0 1.36987) translate(0 1.36987) translate(0 1.36987) translate(0 1.36987) translate(0 1.36987) translate(0 1.36987) translate(0 1.36987) translate(0 1.36987) translate(0 1.36987) translate(0 1.36987) translate(0 1.36987) translate(0 1.36987) translate(0 1.36987) translate(0 1.36987) translate(0 1.36987) translate(0 1.36987) translate(0 1.36987) translate(0 1.36987) translate(0 1.36987) translate(0 1.36987) translate(0 1.36987) translate(0 1.36987) translate(0 1.36987) translate(0 1.36987) translate(0 1.36987) translate(0 -1.36987) translate(0 -1.36987) translate(0 -1.36987) translate(0 -1.36987) translate(0 -1.36987) translate(0 -1.36987) translate(0 -1.36987) translate(0 -1.36987) translate(0 -1.36987) translate(0 -1.36987) translate(0 -1.36987) translate(0 -1.36987) translate(0 -1.36987) translate(0 -1.36987) translate(0 -1.36987) translate(0 -1.36987) translate(0 -1.36987) translate(0 -1.36987) translate(0 -1.36987) translate(0 -1.36987) translate(0 -1.36987) translate(0 -1.36987) translate(0 -1.36987) translate(0 -1.36987) translate(0 -1.36987) translate(0 -1.36987) translate(0 -1.36987) translate(0 -1.36987) translate(0 -1.36987) translate(0 -1.36987) translate(0 -1.36987) translate(0 35.63) translate(-0.80688 0) translate(0 23.2743) translate(1.36987 -58.9043) translate(0 -2.11643) translate(-2.06302 0) translate(2.16461 0) translate(-2.73974 -108.22) translate(-53.4249 0)">
      <path d="m496.332,461.295c-5.651,0 -10.232,4.581 -10.232,10.232l0,209.616c0,0 -0.083,34.043 13.9,32.313l304.416,0l0,-241.93c0,-5.651 -4.581,-10.232 -10.232,-10.232l-297.852,0l0,0.001z" id="SVGID_79_"/>
     </defs>
     <use x="-55.50001" y="-108.96613" id="svg_69" fill="#5A78EC" xlink:href="#SVGID_79_"/>
     <clipPath transform="translate(0 1.36987) translate(0 1.36987) translate(0 1.36987) translate(0 1.36987) translate(0 1.36987) translate(0 1.36987) translate(0 1.36987) translate(0 1.36987) translate(0 1.36987) translate(0 1.36987) translate(0 1.36987) translate(0 1.36987) translate(0 1.36987) translate(0 1.36987) translate(0 1.36987) translate(0 1.36987) translate(0 1.36987) translate(0 1.36987) translate(0 1.36987) translate(0 1.36987) translate(0 1.36987) translate(0 1.36987) translate(0 1.36987) translate(0 1.36987) translate(0 1.36987) translate(0 1.36987) translate(0 1.36987) translate(0 1.36987) translate(0 1.36987) translate(0 1.36987) translate(0 1.36987) translate(0 1.36987) translate(0 -1.36987) translate(0 -1.36987) translate(0 -1.36987) translate(0 -1.36987) translate(0 -1.36987) translate(0 -1.36987) translate(0 -1.36987) translate(0 -1.36987) translate(0 -1.36987) translate(0 -1.36987) translate(0 -1.36987) translate(0 -1.36987) translate(0 -1.36987) translate(0 -1.36987) translate(0 -1.36987) translate(0 -1.36987) translate(0 -1.36987) translate(0 -1.36987) translate(0 -1.36987) translate(0 -1.36987) translate(0 -1.36987) translate(0 -1.36987) translate(0 -1.36987) translate(0 -1.36987) translate(0 -1.36987) translate(0 -1.36987) translate(0 -1.36987) translate(0 -1.36987) translate(0 -1.36987) translate(0 -1.36987) translate(0 -1.36987) translate(0 35.63) translate(-0.80688 0) translate(0 23.2743) translate(1.36987 -58.9043) translate(0 -2.11643) translate(-2.06302 0) translate(2.16461 0) translate(-2.73974 -108.22) translate(-53.4249 0)" id="SVGID_4_">
      <use x="-55.50001" y="-108.96613" id="svg_70" xlink:href="#SVGID_79_"/>
     </clipPath>
     <rect id="svg_71" fill="#4D6BCE" clip-path="url(#SVGID_4_)" height="156.884" width="387.284" y="510.57187" x="390.81099"/>
    </g>
    <path id="svg_72" fill="#5A78EC" d="m851.23199,604.48987c0,0 -4.547,-53.846 -50.779,-81.888l-284.969,0c0,0 54.568,4.618 68.968,81.888l266.78,0z"/>
    <path id="svg_73" fill="#3A59AF" d="m459.65299,604.48987c0,0 19.603,2.169 24.729,-43.239c4.577,-40.543 39.629,-38.649 39.629,-38.649s55.137,-2.274 60.442,81.888l-124.8,0z"/>
    <path id="svg_74" fill="#FFFFFF" d="m692.36499,403.86487l-228.456,0c-2.351,0 -4.256,-1.906 -4.256,-4.256l0,-11.833c0,-2.351 1.906,-4.256 4.256,-4.256l228.456,0c2.351,0 4.256,1.906 4.256,4.256l0,11.833c0,2.351 -1.905,4.256 -4.256,4.256z"/>
    <path id="svg_75" fill="#FFFFFF" d="m626.42799,435.53887l-162.519,0c-2.351,0 -4.256,-1.906 -4.256,-4.256l0,-11.833c0,-2.351 1.906,-4.256 4.256,-4.256l162.519,0c2.351,0 4.256,1.906 4.256,4.256l0,11.833c0.001,2.351 -1.905,4.256 -4.256,4.256z"/>
    <path id="svg_76" fill="#FFFFFF" d="m559.43599,451.07287l-98.009,0c-0.98,0 -1.775,-0.794 -1.775,-1.775l0,-0.656c0,-0.98 0.794,-1.775 1.775,-1.775l98.009,0c0.98,0 1.775,0.795 1.775,1.775l0,0.656c0,0.981 -0.795,1.775 -1.775,1.775z"/>
    <path id="svg_77" fill="#FFFFFF" d="m689.54099,537.75987l-98.009,0c-0.98,0 -1.775,-0.795 -1.775,-1.775l0,-0.656c0,-0.98 0.795,-1.775 1.775,-1.775l98.009,0c0.98,0 1.775,0.794 1.775,1.775l0,0.656c0,0.981 -0.794,1.775 -1.775,1.775z"/>
    <path id="svg_78" fill="#FFFFFF" d="m743.60499,548.37087l-146.767,0c-0.98,0 -1.775,-0.795 -1.775,-1.775l0,-0.656c0,-0.98 0.794,-1.775 1.775,-1.775l146.767,0c0.98,0 1.775,0.794 1.775,1.775l0,0.656c-0.001,0.98 -0.795,1.775 -1.775,1.775z"/>
    <path id="svg_79" fill="#FFFFFF" d="m722.60499,561.35387l-118.693,0c-0.98,0 -1.775,-0.795 -1.775,-1.775l0,-0.656c0,-0.98 0.794,-1.775 1.775,-1.775l118.693,0c0.98,0 1.775,0.795 1.775,1.775l0,0.656c-0.001,0.981 -0.795,1.775 -1.775,1.775z"/>
    <path id="svg_80" fill="#FFFFFF" d="m493.24699,462.49287l-31.819,0c-0.98,0 -1.775,-0.794 -1.775,-1.775l0,-0.656c0,-0.98 0.794,-1.775 1.775,-1.775l31.819,0c0.98,0 1.775,0.795 1.775,1.775l0,0.656c-0.001,0.981 -0.795,1.775 -1.775,1.775z"/>
    <path id="svg_81" fill="#FFFFFF" d="m609.58399,462.49287l-103.314,0c-0.98,0 -1.775,-0.794 -1.775,-1.775l0,-0.656c0,-0.98 0.794,-1.775 1.775,-1.775l103.314,0c0.98,0 1.775,0.795 1.775,1.775l0,0.656c-0.001,0.981 -0.795,1.775 -1.775,1.775z"/>
    <path id="svg_82" fill="#FFFFFF" d="m527.73099,473.91287l-66.303,0c-0.98,0 -1.775,-0.794 -1.775,-1.775l0,-0.656c0,-0.98 0.794,-1.775 1.775,-1.775l66.303,0c0.98,0 1.775,0.795 1.775,1.775l0,0.656c0,0.981 -0.795,1.775 -1.775,1.775z"/>
    <path id="svg_83" fill="#FFFFFF" d="m555.01499,473.91287l-12.619,0c-0.98,0 -1.775,-0.794 -1.775,-1.775l0,-0.656c0,-0.98 0.795,-1.775 1.775,-1.775l12.619,0c0.98,0 1.775,0.795 1.775,1.775l0,0.656c0,0.981 -0.795,1.775 -1.775,1.775z"/>
    <path id="svg_84" fill="#FFFFFF" d="m468.74099,485.33287l-7.314,0c-0.98,0 -1.775,-0.794 -1.775,-1.775l0,-0.656c0,-0.98 0.794,-1.775 1.775,-1.775l7.314,0c0.98,0 1.775,0.795 1.775,1.775l0,0.656c0,0.981 -0.794,1.775 -1.775,1.775z"/>
    <path id="svg_85" fill="#FFFFFF" d="m519.14099,485.33287l-40.03,0c-0.98,0 -1.775,-0.794 -1.775,-1.775l0,-0.656c0,-0.98 0.794,-1.775 1.775,-1.775l40.03,0c0.98,0 1.775,0.795 1.775,1.775l0,0.656c0,0.981 -0.794,1.775 -1.775,1.775z"/>
    <path id="svg_86" fill="#FFFFFF" d="m793.51499,551.99887l2.503,5.442c0.237,0.516 0.697,0.874 1.228,0.957l5.598,0.873c1.338,0.209 1.872,1.972 0.904,2.984l-4.051,4.236c-0.384,0.402 -0.56,0.981 -0.469,1.549l0.956,5.982c0.229,1.429 -1.17,2.519 -2.366,1.844l-5.007,-2.824c-0.475,-0.268 -1.043,-0.268 -1.518,0l-5.007,2.824c-1.196,0.675 -2.595,-0.415 -2.366,-1.844l0.956,-5.982c0.091,-0.568 -0.085,-1.147 -0.469,-1.549l-4.051,-4.236c-0.968,-1.012 -0.434,-2.776 0.904,-2.984l5.598,-0.873c0.531,-0.083 0.99,-0.441 1.228,-0.957l2.503,-5.442c0.6,-1.301 2.328,-1.301 2.926,0z"/>
    <path id="svg_87" fill="#232323" d="m444.49999,566.12287c-0.553,0 -1,-0.447 -1,-1l0,-209.007c0,-6.54 5.321,-11.861 11.861,-11.861l294.944,0c6.472,0 11.737,5.266 11.737,11.737l0,162.063c0,0.553 -0.447,1 -1,1s-1,-0.447 -1,-1l0,-162.063c0,-5.369 -4.368,-9.737 -9.737,-9.737l-294.944,0c-5.438,0 -9.861,4.424 -9.861,9.861l0,209.007c0,0.553 -0.448,1 -1,1z"/>
   </g>
   <g id="svg_88">
    <g id="svg_89">
     <defs transform="translate(0 1.36987) translate(0 1.36987) translate(0 1.36987) translate(0 1.36987) translate(0 1.36987) translate(0 1.36987) translate(0 1.36987) translate(0 1.36987) translate(0 1.36987) translate(0 1.36987) translate(0 1.36987) translate(0 1.36987) translate(0 1.36987) translate(0 1.36987) translate(0 1.36987) translate(0 1.36987) translate(0 1.36987) translate(0 1.36987) translate(0 1.36987) translate(0 1.36987) translate(0 1.36987) translate(0 1.36987) translate(0 1.36987) translate(0 1.36987) translate(0 1.36987) translate(0 1.36987) translate(0 1.36987) translate(0 1.36987) translate(0 1.36987) translate(0 1.36987) translate(0 1.36987) translate(0 1.36987) translate(0 -1.36987) translate(0 -1.36987) translate(0 -1.36987) translate(0 -1.36987) translate(0 -1.36987) translate(0 -1.36987) translate(0 -1.36987) translate(0 -1.36987) translate(0 -1.36987) translate(0 -1.36987) translate(0 -1.36987) translate(0 -1.36987) translate(0 -1.36987) translate(0 -1.36987) translate(0 -1.36987) translate(0 -1.36987) translate(0 -1.36987) translate(0 -1.36987) translate(0 -1.36987) translate(0 -1.36987) translate(0 -1.36987) translate(0 -1.36987) translate(0 -1.36987) translate(0 -1.36987) translate(0 -1.36987) translate(0 -1.36987) translate(0 -1.36987) translate(0 -1.36987) translate(0 -1.36987) translate(0 -1.36987) translate(0 -1.36987) translate(0 35.63) translate(-0.80688 0) translate(0 23.2743) translate(1.36987 -58.9043) translate(0 -2.11643) translate(-2.06302 0) translate(2.16461 0) translate(-2.73974 -108.22) translate(-53.4249 0)">
      <path d="m884.336,361.834l-226.065,0l53.666,-36.455l0,-94.317c0,-4.625 3.75,-8.375 8.375,-8.375l164.024,0c4.625,0 8.375,3.75 8.375,8.375l0,122.398c0,4.625 -3.75,8.374 -8.375,8.374z" id="XMLID_114_"/>
     </defs>
     <use x="-55.50001" y="-108.96613" id="svg_90" fill="#FF6666" xlink:href="#XMLID_114_"/>
     <clipPath transform="translate(0 1.36987) translate(0 1.36987) translate(0 1.36987) translate(0 1.36987) translate(0 1.36987) translate(0 1.36987) translate(0 1.36987) translate(0 1.36987) translate(0 1.36987) translate(0 1.36987) translate(0 1.36987) translate(0 1.36987) translate(0 1.36987) translate(0 1.36987) translate(0 1.36987) translate(0 1.36987) translate(0 1.36987) translate(0 1.36987) translate(0 1.36987) translate(0 1.36987) translate(0 1.36987) translate(0 1.36987) translate(0 1.36987) translate(0 1.36987) translate(0 1.36987) translate(0 1.36987) translate(0 1.36987) translate(0 1.36987) translate(0 1.36987) translate(0 1.36987) translate(0 1.36987) translate(0 1.36987) translate(0 -1.36987) translate(0 -1.36987) translate(0 -1.36987) translate(0 -1.36987) translate(0 -1.36987) translate(0 -1.36987) translate(0 -1.36987) translate(0 -1.36987) translate(0 -1.36987) translate(0 -1.36987) translate(0 -1.36987) translate(0 -1.36987) translate(0 -1.36987) translate(0 -1.36987) translate(0 -1.36987) translate(0 -1.36987) translate(0 -1.36987) translate(0 -1.36987) translate(0 -1.36987) translate(0 -1.36987) translate(0 -1.36987) translate(0 -1.36987) translate(0 -1.36987) translate(0 -1.36987) translate(0 -1.36987) translate(0 -1.36987) translate(0 -1.36987) translate(0 -1.36987) translate(0 -1.36987) translate(0 -1.36987) translate(0 -1.36987) translate(0 35.63) translate(-0.80688 0) translate(0 23.2743) translate(1.36987 -58.9043) translate(0 -2.11643) translate(-2.06302 0) translate(2.16461 0) translate(-2.73974 -108.22) translate(-53.4249 0)" id="XMLID_5_">
      <use x="-55.50001" y="-108.96613" id="svg_91" xlink:href="#XMLID_114_"/>
     </clipPath>
     <rect id="svg_92" fill="#FFFFFF" clip-path="url(#XMLID_5_)" height="65.179" width="253.895" y="74.68687" x="610.97899"/>
    </g>
    <circle id="svg_93" fill="#F06361" r="5.522" cy="127.48687" cx="774.81199"/>
    <circle id="svg_94" fill="#F8BB3F" r="5.522" cy="127.48687" cx="795.11199"/>
    <circle id="svg_95" fill="#2FC843" r="5.522" cy="127.48687" cx="815.41099"/>
    <path id="svg_96" fill="#FFFFFF" d="m755.68399,194.57987l44.949,0c0,24.658 -20.291,44.949 -44.949,44.949c-24.658,0 -44.949,-20.291 -44.949,-44.949s20.291,-44.949 44.949,-44.949c0.016,0 0.032,0 0.048,0l-0.048,44.949z"/>
    <path id="svg_97" fill="#FFFFFF" d="m758.08599,192.28187l-0.07,-44.949c0.023,0 0.047,0 0.07,0c24.658,0 44.949,20.291 44.949,44.949l-44.949,0z"/>
    <rect id="svg_98" fill="#FFFFFF" height="23.93" width="23.93" y="150.85987" x="672.74799"/>
    <rect id="svg_99" fill="#FFFFFF" height="23.93" width="23.93" y="184.22487" x="672.74799"/>
    <path id="svg_100" fill="#FFFFFF" d="m711.91699,221.82087l-38.171,0c-0.549,0 -0.999,-0.449 -0.999,-0.999l0,0c0,-0.549 0.449,-0.999 0.999,-0.999l38.171,0c0.549,0 0.999,0.449 0.999,0.999l0,0c0,0.55 -0.449,0.999 -0.999,0.999z"/>
    <path id="svg_101" fill="#FFFFFF" d="m711.91699,228.38987l-38.171,0c-0.549,0 -0.999,-0.449 -0.999,-0.999l0,0c0,-0.549 0.449,-0.999 0.999,-0.999l38.171,0c0.549,0 0.999,0.449 0.999,0.999l0,0c0,0.549 -0.449,0.999 -0.999,0.999z"/>
    <path id="svg_102" fill="#FFFFFF" d="m691.26499,234.95787l-17.518,0c-0.549,0 -0.999,-0.449 -0.999,-0.999l0,0c0,-0.549 0.449,-0.999 0.999,-0.999l17.518,0c0.549,0 0.999,0.449 0.999,0.999l0,0c-0.001,0.549 -0.45,0.999 -0.999,0.999z"/>
    <path id="svg_103" fill="#232323" d="m832.66399,246.52687l-153.421,0c-7.865,0 -14.264,-6.398 -14.264,-14.263l0,-110.043c0,-7.865 6.398,-14.264 14.264,-14.264l153.421,0c7.864,0 14.263,6.398 14.263,14.264l0,110.043c0,7.865 -6.399,14.263 -14.263,14.263zm-153.421,-136.57c-6.763,0 -12.264,5.501 -12.264,12.264l0,110.043c0,6.762 5.501,12.263 12.264,12.263l153.421,0c6.762,0 12.263,-5.501 12.263,-12.263l0,-110.043c0,-6.763 -5.501,-12.264 -12.263,-12.264l-153.421,0z"/>
   </g>
   <path id="svg_104" fill="#FFFFFF" d="m326.45799,206.05787l-1.561,1.765c-0.848,0.959 -2.327,1.049 -3.285,0.201l-14.468,-12.798c-0.959,-0.848 -1.049,-2.327 -0.201,-3.285l1.561,-1.765c0.848,-0.959 2.327,-1.049 3.285,-0.201l14.468,12.798c0.958,0.848 1.049,2.326 0.201,3.285z"/>
   <path id="svg_105" fill="#FFFFFF" d="m350.44899,175.47687l1.736,1.593c0.943,0.865 1.007,2.345 0.141,3.289l-26.257,28.618c-0.865,0.943 -2.345,1.007 -3.289,0.141l-1.736,-1.593c-0.943,-0.865 -1.007,-2.345 -0.141,-3.289l26.257,-28.618c0.865,-0.943 2.345,-1.006 3.289,-0.141z"/>
   <path id="svg_106" fill="#232323" d="m158.91999,242.57187l-29.962,0c-0.553,0 -1,-0.447 -1,-1l0,-33.749c0,-0.553 0.447,-1 1,-1s1,0.447 1,1l0,32.749l28.962,0c0.553,0 1,0.447 1,1s-0.448,1 -1,1z"/>
   <path id="svg_107" fill="#5A6C1C" d="m795.52799,499.72787c-0.042,0 -0.084,-0.003 -0.127,-0.008c-0.548,-0.069 -0.936,-0.57 -0.866,-1.118c3.026,-23.834 23.905,-55.191 24.793,-56.515c0.307,-0.459 0.929,-0.583 1.387,-0.273c0.459,0.307 0.581,0.929 0.274,1.387c-0.215,0.32 -21.504,32.292 -24.47,55.653c-0.064,0.505 -0.495,0.874 -0.991,0.874z"/>
   <path id="svg_108" fill="#5A6C1C" d="m773.54699,497.74987c-0.521,0 -0.96,-0.403 -0.997,-0.932c-2.642,-38.31 21.852,-83.756 22.1,-84.21c0.264,-0.484 0.87,-0.665 1.356,-0.399c0.485,0.264 0.664,0.871 0.399,1.356c-0.245,0.449 -24.461,45.394 -21.859,83.116c0.037,0.551 -0.378,1.028 -0.93,1.066c-0.023,0.002 -0.046,0.003 -0.069,0.003z"/>
   <path id="svg_109" fill="#5A6C1C" d="m807.84199,513.37087c-0.186,0 -0.373,-0.052 -0.541,-0.159c-0.464,-0.3 -0.598,-0.919 -0.299,-1.383c16.862,-26.145 32.28,-31.438 32.929,-31.651c0.522,-0.173 1.087,0.113 1.261,0.637c0.173,0.524 -0.112,1.089 -0.636,1.263c-0.152,0.051 -15.442,5.36 -31.872,30.836c-0.192,0.296 -0.514,0.457 -0.842,0.457z"/>
   <path id="svg_110" fill="#FFD840" d="m155.71199,293.38687l-24.547,0c-1.764,0 -3.207,-1.443 -3.207,-3.207l0,0c0,-1.764 1.443,-3.207 3.207,-3.207l24.547,0c1.764,0 3.207,1.443 3.207,3.207l0,0c0.001,1.763 -1.442,3.207 -3.207,3.207z"/>
   <path id="svg_111" fill="#FFD840" d="m155.71199,321.00587l-24.547,0c-1.764,0 -3.207,-1.443 -3.207,-3.207l0,0c0,-1.764 1.443,-3.207 3.207,-3.207l24.547,0c1.764,0 3.207,1.443 3.207,3.207l0,0c0.001,1.764 -1.442,3.207 -3.207,3.207z"/>
   <path id="svg_112" fill="#FFD840" d="m132.31899,307.29387l-33.066,0c-1.764,0 -3.207,-1.443 -3.207,-3.207l0,0c0,-1.764 1.443,-3.207 3.207,-3.207l33.066,0c1.764,0 3.207,1.443 3.207,3.207l0,0c0.001,1.764 -1.443,3.207 -3.207,3.207z"/>
   <path id="svg_113" fill="#FFD840" d="m186.63499,307.29387l-33.066,0c-1.764,0 -3.207,-1.443 -3.207,-3.207l0,0c0,-1.764 1.443,-3.207 3.207,-3.207l33.066,0c1.764,0 3.207,1.443 3.207,3.207l0,0c0,1.764 -1.443,3.207 -3.207,3.207z"/>
  </g>
 </g>
</svg>